<?xml version="1.0" encoding="UTF-8" standalone="no"?>
<!DOCTYPE svg PUBLIC "-//W3C//DTD SVG 1.1//EN"
 "http://www.w3.org/Graphics/SVG/1.1/DTD/svg11.dtd">
<!-- Generated by graphviz version 2.44.0 (0)
 -->
<!-- Title: example Pages: 1 -->
<svg width="506pt" height="664pt"
 viewBox="0.00 0.00 506.42 664.32" xmlns="http://www.w3.org/2000/svg" xmlns:xlink="http://www.w3.org/1999/xlink">
<g id="graph0" class="graph" transform="scale(1 1) rotate(0) translate(4 660.32)">
<title>example</title>
<polygon fill="white" stroke="transparent" points="-4,4 -4,-660.32 502.42,-660.32 502.42,4 -4,4"/>
<!-- a -->
<g id="node1" class="node">
<title>a</title>
<ellipse fill="none" stroke="black" cx="166.22" cy="-52.99" rx="27" ry="18"/>
<text text-anchor="middle" x="166.22" y="-49.29" font-family="Times,serif" font-size="14.00">a</text>
</g>
<!-- b -->
<g id="node2" class="node">
<title>b</title>
<ellipse fill="none" stroke="black" cx="93.25" cy="-18" rx="27" ry="18"/>
<text text-anchor="middle" x="93.25" y="-14.3" font-family="Times,serif" font-size="14.00">b</text>
</g>
<!-- a&#45;&#45;b -->
<g id="edge1" class="edge">
<title>a&#45;&#45;b</title>
<path fill="none" stroke="black" d="M143.93,-42.3C134.88,-37.96 124.44,-32.96 115.4,-28.62"/>
</g>
<!-- g -->
<g id="node7" class="node">
<title>g</title>
<ellipse fill="none" stroke="black" cx="219.6" cy="-118.68" rx="27" ry="18"/>
<text text-anchor="middle" x="219.6" y="-114.98" font-family="Times,serif" font-size="14.00">g</text>
</g>
<!-- a&#45;&#45;g -->
<g id="edge25" class="edge">
<title>a&#45;&#45;g</title>
<path fill="none" stroke="black" d="M179.14,-68.89C187.41,-79.07 198.11,-92.23 206.42,-102.47"/>
</g>
<!-- c -->
<g id="node3" class="node">
<title>c</title>
<ellipse fill="none" stroke="black" cx="27" cy="-62.65" rx="27" ry="18"/>
<text text-anchor="middle" x="27" y="-58.95" font-family="Times,serif" font-size="14.00">c</text>
</g>
<!-- b&#45;&#45;c -->
<g id="edge2" class="edge">
<title>b&#45;&#45;c</title>
<path fill="none" stroke="black" d="M74.09,-30.91C65.37,-36.79 55.08,-43.72 46.35,-49.61"/>
</g>
<!-- d -->
<g id="node4" class="node">
<title>d</title>
<ellipse fill="none" stroke="black" cx="37.41" cy="-142.84" rx="27" ry="18"/>
<text text-anchor="middle" x="37.41" y="-139.14" font-family="Times,serif" font-size="14.00">d</text>
</g>
<!-- c&#45;&#45;d -->
<g id="edge3" class="edge">
<title>c&#45;&#45;d</title>
<path fill="none" stroke="black" d="M29.36,-80.85C31.07,-93.97 33.35,-111.61 35.06,-124.71"/>
</g>
<!-- e -->
<g id="node5" class="node">
<title>e</title>
<ellipse fill="none" stroke="black" cx="106.76" cy="-187.21" rx="27" ry="18"/>
<text text-anchor="middle" x="106.76" y="-183.51" font-family="Times,serif" font-size="14.00">e</text>
</g>
<!-- d&#45;&#45;e -->
<g id="edge4" class="edge">
<title>d&#45;&#45;e</title>
<path fill="none" stroke="black" d="M57.1,-155.43C66.55,-161.48 77.83,-168.7 87.26,-174.73"/>
</g>
<!-- f -->
<g id="node6" class="node">
<title>f</title>
<ellipse fill="none" stroke="black" cx="191.1" cy="-202.34" rx="27" ry="18"/>
<text text-anchor="middle" x="191.1" y="-198.64" font-family="Times,serif" font-size="14.00">f</text>
</g>
<!-- e&#45;&#45;f -->
<g id="edge5" class="edge">
<title>e&#45;&#45;f</title>
<path fill="none" stroke="black" d="M132.98,-191.91C143.14,-193.73 154.74,-195.81 164.89,-197.64"/>
</g>
<!-- f&#45;&#45;g -->
<g id="edge6" class="edge">
<title>f&#45;&#45;g</title>
<path fill="none" stroke="black" d="M197.14,-184.6C201.98,-170.4 208.73,-150.58 213.56,-136.39"/>
</g>
<!-- p -->
<g id="node15" class="node">
<title>p</title>
<ellipse fill="none" stroke="black" cx="222.36" cy="-285.19" rx="27" ry="18"/>
<text text-anchor="middle" x="222.36" y="-281.49" font-family="Times,serif" font-size="14.00">p</text>
</g>
<!-- f&#45;&#45;p -->
<g id="edge26" class="edge">
<title>f&#45;&#45;p</title>
<path fill="none" stroke="black" d="M197.73,-219.91C203.03,-233.97 210.44,-253.59 215.74,-267.65"/>
</g>
<!-- h -->
<g id="node8" class="node">
<title>h</title>
<ellipse fill="none" stroke="black" cx="288.67" cy="-68.79" rx="27" ry="18"/>
<text text-anchor="middle" x="288.67" y="-65.09" font-family="Times,serif" font-size="14.00">h</text>
</g>
<!-- g&#45;&#45;h -->
<g id="edge7" class="edge">
<title>g&#45;&#45;h</title>
<path fill="none" stroke="black" d="M238.11,-105.31C248.02,-98.15 260.19,-89.36 270.11,-82.2"/>
</g>
<!-- j -->
<g id="node9" class="node">
<title>j</title>
<ellipse fill="none" stroke="black" cx="366.65" cy="-43.64" rx="27" ry="18"/>
<text text-anchor="middle" x="366.65" y="-39.94" font-family="Times,serif" font-size="14.00">j</text>
</g>
<!-- h&#45;&#45;j -->
<g id="edge8" class="edge">
<title>h&#45;&#45;j</title>
<path fill="none" stroke="black" d="M313.34,-60.83C322.53,-57.87 332.96,-54.5 342.13,-51.54"/>
</g>
<!-- k -->
<g id="node10" class="node">
<title>k</title>
<ellipse fill="none" stroke="black" cx="439.96" cy="-82.36" rx="27" ry="18"/>
<text text-anchor="middle" x="439.96" y="-78.66" font-family="Times,serif" font-size="14.00">k</text>
</g>
<!-- j&#45;&#45;k -->
<g id="edge9" class="edge">
<title>j&#45;&#45;k</title>
<path fill="none" stroke="black" d="M387.85,-54.84C397.49,-59.93 408.88,-65.95 418.55,-71.05"/>
</g>
<!-- l -->
<g id="node11" class="node">
<title>l</title>
<ellipse fill="none" stroke="black" cx="471.42" cy="-159.53" rx="27" ry="18"/>
<text text-anchor="middle" x="471.42" y="-155.83" font-family="Times,serif" font-size="14.00">l</text>
</g>
<!-- k&#45;&#45;l -->
<g id="edge10" class="edge">
<title>k&#45;&#45;l</title>
<path fill="none" stroke="black" d="M447.1,-99.87C452.25,-112.5 459.17,-129.48 464.31,-142.09"/>
</g>
<!-- m -->
<g id="node12" class="node">
<title>m</title>
<ellipse fill="none" stroke="black" cx="446.99" cy="-238.09" rx="27" ry="18"/>
<text text-anchor="middle" x="446.99" y="-234.39" font-family="Times,serif" font-size="14.00">m</text>
</g>
<!-- l&#45;&#45;m -->
<g id="edge11" class="edge">
<title>l&#45;&#45;m</title>
<path fill="none" stroke="black" d="M465.87,-177.36C461.88,-190.21 456.5,-207.49 452.51,-220.33"/>
</g>
<!-- n -->
<g id="node13" class="node">
<title>n</title>
<ellipse fill="none" stroke="black" cx="379.99" cy="-288.05" rx="27" ry="18"/>
<text text-anchor="middle" x="379.99" y="-284.35" font-family="Times,serif" font-size="14.00">n</text>
</g>
<!-- m&#45;&#45;n -->
<g id="edge12" class="edge">
<title>m&#45;&#45;n</title>
<path fill="none" stroke="black" d="M428.68,-251.74C419.23,-258.79 407.73,-267.37 398.27,-274.41"/>
</g>
<!-- o -->
<g id="node14" class="node">
<title>o</title>
<ellipse fill="none" stroke="black" cx="302.61" cy="-327.43" rx="27" ry="18"/>
<text text-anchor="middle" x="302.61" y="-323.73" font-family="Times,serif" font-size="14.00">o</text>
</g>
<!-- n&#45;&#45;o -->
<g id="edge13" class="edge">
<title>n&#45;&#45;o</title>
<path fill="none" stroke="black" d="M358.43,-299.02C347.79,-304.43 334.98,-310.95 324.32,-316.38"/>
</g>
<!-- o&#45;&#45;p -->
<g id="edge14" class="edge">
<title>o&#45;&#45;p</title>
<path fill="none" stroke="black" d="M281.11,-316.11C269.5,-310 255.22,-302.49 243.64,-296.4"/>
</g>
<!-- v -->
<g id="node21" class="node">
<title>v</title>
<ellipse fill="none" stroke="black" cx="318.22" cy="-413.94" rx="27" ry="18"/>
<text text-anchor="middle" x="318.22" y="-410.24" font-family="Times,serif" font-size="14.00">v</text>
</g>
<!-- o&#45;&#45;v -->
<g id="edge27" class="edge">
<title>o&#45;&#45;v</title>
<path fill="none" stroke="black" d="M305.85,-345.35C308.53,-360.2 312.32,-381.2 314.99,-396.04"/>
</g>
<!-- q -->
<g id="node16" class="node">
<title>q</title>
<ellipse fill="none" stroke="black" cx="154.9" cy="-338.22" rx="27" ry="18"/>
<text text-anchor="middle" x="154.9" y="-334.52" font-family="Times,serif" font-size="14.00">q</text>
</g>
<!-- p&#45;&#45;q -->
<g id="edge15" class="edge">
<title>p&#45;&#45;q</title>
<path fill="none" stroke="black" d="M204.63,-299.13C194.8,-306.86 182.6,-316.45 172.74,-324.2"/>
</g>
<!-- r -->
<g id="node17" class="node">
<title>r</title>
<ellipse fill="none" stroke="black" cx="111.77" cy="-409.15" rx="27" ry="18"/>
<text text-anchor="middle" x="111.77" y="-405.45" font-family="Times,serif" font-size="14.00">r</text>
</g>
<!-- q&#45;&#45;r -->
<g id="edge16" class="edge">
<title>q&#45;&#45;r</title>
<path fill="none" stroke="black" d="M144.68,-355.03C137.8,-366.34 128.78,-381.18 121.92,-392.46"/>
</g>
<!-- s -->
<g id="node18" class="node">
<title>s</title>
<ellipse fill="none" stroke="black" cx="129.54" cy="-489.11" rx="27" ry="18"/>
<text text-anchor="middle" x="129.54" y="-485.41" font-family="Times,serif" font-size="14.00">s</text>
</g>
<!-- r&#45;&#45;s -->
<g id="edge17" class="edge">
<title>r&#45;&#45;s</title>
<path fill="none" stroke="black" d="M115.8,-427.29C118.71,-440.38 122.62,-457.97 125.52,-471.03"/>
</g>
<!-- t -->
<g id="node19" class="node">
<title>t</title>
<ellipse fill="none" stroke="black" cx="202.84" cy="-524.02" rx="27" ry="18"/>
<text text-anchor="middle" x="202.84" y="-520.32" font-family="Times,serif" font-size="14.00">t</text>
</g>
<!-- s&#45;&#45;t -->
<g id="edge18" class="edge">
<title>s&#45;&#45;t</title>
<path fill="none" stroke="black" d="M151.53,-499.58C160.81,-504 171.59,-509.13 180.86,-513.55"/>
</g>
<!-- u -->
<g id="node20" class="node">
<title>u</title>
<ellipse fill="none" stroke="black" cx="281.18" cy="-493.13" rx="27" ry="18"/>
<text text-anchor="middle" x="281.18" y="-489.43" font-family="Times,serif" font-size="14.00">u</text>
</g>
<!-- t&#45;&#45;u -->
<g id="edge19" class="edge">
<title>t&#45;&#45;u</title>
<path fill="none" stroke="black" d="M226.35,-514.75C236.26,-510.84 247.78,-506.3 257.69,-502.39"/>
</g>
<!-- u&#45;&#45;v -->
<g id="edge20" class="edge">
<title>u&#45;&#45;v</title>
<path fill="none" stroke="black" d="M289.4,-475.56C295.58,-462.34 304.01,-444.33 310.15,-431.19"/>
</g>
<!-- y -->
<g id="node24" class="node">
<title>y</title>
<ellipse fill="none" stroke="black" cx="332.18" cy="-560.11" rx="27" ry="18"/>
<text text-anchor="middle" x="332.18" y="-556.41" font-family="Times,serif" font-size="14.00">y</text>
</g>
<!-- u&#45;&#45;y -->
<g id="edge28" class="edge">
<title>u&#45;&#45;y</title>
<path fill="none" stroke="black" d="M293.53,-509.35C301.55,-519.88 311.95,-533.54 319.95,-544.04"/>
</g>
<!-- w -->
<g id="node22" class="node">
<title>w</title>
<ellipse fill="none" stroke="black" cx="391.5" cy="-452.56" rx="27" ry="18"/>
<text text-anchor="middle" x="391.5" y="-448.86" font-family="Times,serif" font-size="14.00">w</text>
</g>
<!-- v&#45;&#45;w -->
<g id="edge21" class="edge">
<title>v&#45;&#45;w</title>
<path fill="none" stroke="black" d="M339.42,-425.11C349.06,-430.19 360.44,-436.19 370.1,-441.28"/>
</g>
<!-- x -->
<g id="node23" class="node">
<title>x</title>
<ellipse fill="none" stroke="black" cx="404.61" cy="-529.87" rx="27" ry="18"/>
<text text-anchor="middle" x="404.61" y="-526.17" font-family="Times,serif" font-size="14.00">x</text>
</g>
<!-- w&#45;&#45;x -->
<g id="edge22" class="edge">
<title>w&#45;&#45;x</title>
<path fill="none" stroke="black" d="M394.54,-470.49C396.65,-482.89 399.43,-499.33 401.54,-511.77"/>
</g>
<!-- x&#45;&#45;y -->
<g id="edge23" class="edge">
<title>x&#45;&#45;y</title>
<path fill="none" stroke="black" d="M381.69,-539.44C373.24,-542.97 363.66,-546.96 355.2,-550.5"/>
</g>
<!-- z -->
<g id="node25" class="node">
<title>z</title>
<ellipse fill="none" stroke="black" cx="340.03" cy="-638.32" rx="27" ry="18"/>
<text text-anchor="middle" x="340.03" y="-634.62" font-family="Times,serif" font-size="14.00">z</text>
</g>
<!-- y&#45;&#45;z -->
<g id="edge24" class="edge">
<title>y&#45;&#45;z</title>
<path fill="none" stroke="black" d="M334,-578.25C335.27,-590.88 336.95,-607.66 338.22,-620.28"/>
</g>
</g>
</svg>
